<?xml version="1.0" encoding="UTF-8"?>
<svg xmlns="http://www.w3.org/2000/svg" xmlns:xlink="http://www.w3.org/1999/xlink" width="20pt" height="20pt" viewBox="0 0 20 20" version="1.1">
<g id="surface1">
<path style=" stroke:none;fill-rule:nonzero;fill:rgb(94.117647%,32.156863%,15.686275%);fill-opacity:1;" d="M 9.277344 14.496094 C 8.472656 14.496094 7.824219 15.144531 7.824219 15.949219 C 7.824219 16.75 8.472656 17.398438 9.277344 17.398438 C 10.078125 17.398438 10.730469 16.75 10.730469 15.949219 C 10.730469 15.144531 10.078125 14.496094 9.277344 14.496094 Z M 9.277344 14.496094 "/>
<path style=" stroke:none;fill-rule:nonzero;fill:rgb(94.117647%,32.156863%,15.686275%);fill-opacity:1;" d="M 15.203125 14.496094 C 14.402344 14.496094 13.75 15.144531 13.75 15.949219 C 13.75 16.75 14.402344 17.398438 15.203125 17.398438 C 16.003906 17.398438 16.65625 16.75 16.65625 15.949219 C 16.65625 15.144531 16.003906 14.496094 15.203125 14.496094 Z M 15.203125 14.496094 "/>
<path style=" stroke:none;fill-rule:nonzero;fill:rgb(94.117647%,32.156863%,15.686275%);fill-opacity:1;" d="M 16.390625 8.027344 L 8.089844 8.027344 L 8.417969 9.117188 L 16.0625 9.117188 Z M 16.390625 8.027344 "/>
<path style=" stroke:none;fill-rule:nonzero;fill:rgb(94.117647%,32.156863%,15.686275%);fill-opacity:1;" d="M 15.402344 11.296875 L 15.730469 10.207031 L 8.75 10.207031 L 9.082031 11.296875 Z M 15.402344 11.296875 "/>
<path style=" stroke:none;fill-rule:nonzero;fill:rgb(94.117647%,32.156863%,15.686275%);fill-opacity:1;" d="M 7.273438 5.328125 L 7.753906 6.9375 L 17.832031 6.9375 L 16.191406 12.378906 L 8.296875 12.378906 L 5.332031 2.601562 L 0 2.601562 L 0 4.195312 L 4.136719 4.195312 L 7.105469 13.984375 L 17.375 13.984375 L 20 5.328125 Z M 7.273438 5.328125 "/>
</g>
</svg>
